<svg xmlns="http://www.w3.org/2000/svg" class="icon" style="width: 1em; height: 1em;vertical-align: middle;fill: currentColor;overflow: hidden;" viewBox="0 0 1024 1024" t="1558353503550" p-id="9158" version="1.1" data-spm-anchor-id="a313x.7781069.0.i3"><path d="M 446.836 723.782 c -160.582 0 -290.909 -130.327 -290.909 -290.909 S 286.255 141.964 446.836 141.964 s 290.909 130.327 290.909 290.909 s -130.327 290.909 -290.909 290.909 Z m 0 -558.545 c -146.618 0 -267.636 121.018 -267.636 267.636 s 121.018 267.636 267.636 267.636 s 267.636 -121.018 267.636 -267.636 S 593.455 165.236 446.836 165.236 Z M 877.382 875.055 c -2.32727 0 -6.98182 0 -9.30909 -2.32727 l -232.727 -232.727 c -4.65454 -4.65454 -4.65454 -11.6364 0 -16.2909 s 11.6364 -4.65454 16.2909 0 l 232.727 232.727 c 4.65454 4.65454 4.65454 11.6364 0 16.2909 c 0 0 -4.65454 2.32727 -6.98182 2.32727 Z" p-id="9159" /></svg>